<svg xmlns="http://www.w3.org/2000/svg" viewBox="0 0 180 180">
  <rect width="180" height="180" rx="36" fill="#6B3F23"/>
  <g transform="translate(-10 -10) scale(1.0)">
    <!-- Crescent on the left -->
    <path d="M 100 28 C 60 28 32 60 32 100 C 32 140 60 172 100 172"
          fill="none" stroke="#EDE5DE" stroke-width="4" stroke-linecap="round"/>
    <g fill="#EDE5DE">
      <g transform="rotate(-100 100 100) translate(100 12)"><path d="M 0 0 Q -3.5 -19 0 -38 Q 3.5 -19 0 0 Z"/></g>
      <g transform="rotate(-75 100 100) translate(100 8)"><path d="M 0 0 Q -3.5 -21 0 -42 Q 3.5 -21 0 0 Z"/></g>
      <g transform="rotate(-55 100 100) translate(100 6)"><path d="M 0 0 Q -3.5 -22 0 -44 Q 3.5 -22 0 0 Z"/></g>
      <g transform="rotate(-35 100 100) translate(100 5)"><path d="M 0 0 Q -3.5 -22.5 0 -45 Q 3.5 -22.5 0 0 Z"/></g>
      <g transform="rotate(-15 100 100) translate(100 6)"><path d="M 0 0 Q -3.5 -22 0 -44 Q 3.5 -22 0 0 Z"/></g>
      <g transform="rotate(10 100 100) translate(100 8)"><path d="M 0 0 Q -3.5 -21 0 -42 Q 3.5 -21 0 0 Z"/></g>
      <g transform="rotate(35 100 100) translate(100 10)"><path d="M 0 0 Q -3.5 -20 0 -40 Q 3.5 -20 0 0 Z"/></g>
      <g transform="rotate(60 100 100) translate(100 12)"><path d="M 0 0 Q -3.5 -19 0 -38 Q 3.5 -19 0 0 Z"/></g>
      <g transform="rotate(85 100 100) translate(100 14)"><path d="M 0 0 Q -3.5 -18 0 -36 Q 3.5 -18 0 0 Z"/></g>
    </g>
    <g stroke="#EDE5DE" stroke-width="5" stroke-linecap="round" stroke-linejoin="round" fill="none">
      <circle cx="100" cy="58" r="5.5" fill="#EDE5DE" stroke="none"/>
      <path d="M 76 56 L 100 80 L 124 56"/>
      <path d="M 100 80 L 100 96"/>
      <path d="M 100 96 L 109 106 L 100 116 L 91 106 Z" fill="#EDE5DE"/>
      <path d="M 100 116 L 100 132"/>
      <path d="M 74 168 L 74 144 Q 100 122 126 144 L 126 168"/>
    </g>
  </g>
</svg>
